{"title":"Jupiter.Ascending.2015.720p.HDCAM.FIRST.ENG.x264-Pimp4003","uid":11716425,"size":2200099381,"categoryP":"video","categoryS":"movies","magnet":"?xt=urn:btih:8334331c7d7723dabfd1d694837385f8643a0a6e&amp;dn=Jupiter.Ascending.2015.720p.HDCAM.FIRST.ENG.x264-Pimp4003&amp;tr=udp%3A%2F%2Ftracker.openbittorrent.com%3A80&amp;tr=udp%3A%2F%2Fopen.demonii.com%3A1337&amp;tr=udp%3A%2F%2Ftracker.coppersurfer.tk%3A6969&amp;tr=udp%3A%2F%2Fexodus.desync.com%3A6969","seeders":2,"leechers":0,"uploader":"grecu12","files":2,"time":1424601906,"description":"Jupiter Ascending 2015 720p HDCAM FIRST ENG x264 Pimp4003\n &lt;a href=&quot;\nhttp://www.imdb.com/title/tt1617661/&quot; rel=&quot;nofollow&quot; target=&quot;_NEW&quot;&gt;\nhttp://www.imdb.com/title/tt1617661/&lt;/a&gt;\n\nIn a bright and colorful future, a young destitute caretaker gets targeted by the ruthless son of a powerful family who lives on a planet in need of a new heir, so she travels with a genetically engineered warrior to the planet in order to stop his tyrant reign.\n\nDirectors: Andy Wachowski (as The Wachowskis) , Lana Wachowski (as The Wachowskis)\n\nWriters: Andy Wachowski, Lana Wachowski\n\nStars: Channing Tatum, Mila Kunis, Eddie Redmayne |See full cast and crew Â»\n\nVideo\n\nID : 1\n\nFormat : MPEG-4 Visual\n\nFormat profile : Simple@L3\n\nFormat settings, BVOP : No\n\nFormat settings, QPel : No\n\nFormat settings, GMC : No warppoints\n\nFormat settings, Matrix : Default (H.263)\n\nCodec ID : 20\n\nDuration : 1h 58mn\n\nBit rate : 2 393 Kbps\n\nWidth : 1 280 pixels\n\nHeight : 536 pixels\n\nDisplay aspect ratio : 2.40:1\n\nFrame rate mode : Variable\n\nFrame rate : 59.940 fps\n\nMinimum frame rate : 59.916 fps\n\nMaximum frame rate : 60.157 fps\n\nColor space : YUV\n\nChroma subsampling : 4:2:0\n\nBit depth : 8 bits\n\nScan type : Progressive\n\nCompression mode : Lossy\n\nBits/(Pixel*Frame) : 0.058\n\nStream size : 1.99 GiB (97%)\n\nWriting library : ZJMedia MPEG Encoder\n\nAudio\n\nID : 2\n\nFormat : AAC\n\nFormat/Info : Advanced Audio Codec\n\nFormat profile : LC\n\nCodec ID : 40\n\nDuration : 1h 58mn\n\nBit rate mode : Variable\n\nBit rate : 64.4 Kbps\n\nChannel(s) : 2 channels\n\nChannel positions : Front: L R\n\nSampling rate : 48.0 KHz\n\nCompression mode : Lossy\n\nStream size : 54.8 MiB (3%)","torrent":{"xt":"urn:btih:8334331c7d7723dabfd1d694837385f8643a0a6e","amp;dn":"Jupiter.Ascending.2015.720p.HDCAM.FIRST.ENG.x264-Pimp4003","amp;tr":["udp%3A%2F%2Ftracker.openbittorrent.com%3A80","udp%3A%2F%2Fopen.demonii.com%3A1337","udp%3A%2F%2Ftracker.coppersurfer.tk%3A6969","udp%3A%2F%2Fexodus.desync.com%3A6969"],"infoHash":"8334331c7d7723dabfd1d694837385f8643a0a6e","infoHashBuffer":{"type":"Buffer","data":[131,52,51,28,125,119,35,218,191,209,214,148,131,115,133,248,100,58,10,110]},"announce":[],"urlList":[]}}